<svg xmlns="http://www.w3.org/2000/svg" xmlns:xlink="http://www.w3.org/1999/xlink" width="500" zoomAndPan="magnify" viewBox="0 0 375 374.999991" height="500" preserveAspectRatio="xMidYMid meet" version="1.0"><defs><g/><clipPath id="d72492c8a4"><path d="M 0.0390625 0.761719 L 347 0.761719 L 347 220 L 0.0390625 220 Z M 0.0390625 0.761719 " clip-rule="nonzero"/></clipPath><clipPath id="e4251ac852"><rect x="0" width="347" y="0" height="220"/></clipPath><clipPath id="aa9568dedb"><rect x="0" width="196" y="0" height="20"/></clipPath><clipPath id="7bacdfd2ff"><path d="M 75 223 L 364 223 L 364 224.441406 L 75 224.441406 Z M 75 223 " clip-rule="nonzero"/></clipPath><clipPath id="d1afc568a8"><rect x="0" width="364" y="0" height="225"/></clipPath></defs><g transform="matrix(1, 0, 0, 1, 11, 59)"><g clip-path="url(#d1afc568a8)"><g clip-path="url(#d72492c8a4)"><g><g clip-path="url(#e4251ac852)"><g fill="#ff3131" fill-opacity="1"><g transform="translate(0.332004, 157.10175)"><g><path d="M 64.4375 -98.140625 C 65.269531 -101.585938 66.726562 -104.195312 68.8125 -105.96875 C 70.90625 -107.75 73.101562 -108.640625 75.40625 -108.640625 C 77.601562 -108.640625 79.71875 -107.851562 81.75 -106.28125 C 83.789062 -104.71875 85.28125 -102.265625 86.21875 -98.921875 C 86.21875 -91.492188 86.632812 -83.890625 87.46875 -76.109375 C 88.3125 -68.328125 88.734375 -59.628906 88.734375 -50.015625 C 88.734375 -43.640625 88.46875 -37.257812 87.9375 -30.875 C 87.414062 -24.5 87.050781 -18.070312 86.84375 -11.59375 C 86.738281 -7.519531 85.5625 -4.460938 83.3125 -2.421875 C 81.070312 -0.390625 78.644531 0.625 76.03125 0.625 C 73.519531 0.625 71.191406 -0.3125 69.046875 -2.1875 C 66.910156 -4.070312 65.582031 -6.945312 65.0625 -10.8125 C 65.269531 -15.726562 65.6875 -20.09375 66.3125 -23.90625 C 66.9375 -27.71875 67.25 -31.925781 67.25 -36.53125 C 67.25 -37.675781 66.910156 -38.378906 66.234375 -38.640625 C 65.554688 -38.898438 64.066406 -39.1875 61.765625 -39.5 C 57.796875 -39.707031 53.71875 -40.175781 49.53125 -40.90625 C 45.351562 -41.644531 41.28125 -42.015625 37.3125 -42.015625 C 36.582031 -42.015625 36.03125 -41.78125 35.65625 -41.3125 C 35.289062 -40.84375 35.109375 -39.769531 35.109375 -38.09375 C 34.898438 -33.601562 34.769531 -29.472656 34.71875 -25.703125 C 34.664062 -21.941406 34.535156 -17.609375 34.328125 -12.703125 C 34.222656 -8.617188 33.019531 -5.554688 30.71875 -3.515625 C 28.425781 -1.484375 26.023438 -0.46875 23.515625 -0.46875 C 21.003906 -0.46875 18.675781 -1.40625 16.53125 -3.28125 C 14.394531 -5.164062 13.066406 -8.046875 12.546875 -11.921875 C 12.753906 -22.472656 13.066406 -32.1875 13.484375 -41.0625 C 13.898438 -49.945312 14.316406 -58.859375 14.734375 -67.796875 C 15.148438 -76.734375 15.410156 -86.425781 15.515625 -96.875 C 16.359375 -100.320312 17.820312 -102.9375 19.90625 -104.71875 C 22 -106.5 24.195312 -107.390625 26.5 -107.390625 C 28.6875 -107.390625 30.800781 -106.601562 32.84375 -105.03125 C 34.882812 -103.46875 36.375 -101.015625 37.3125 -97.671875 C 37.207031 -91.609375 37 -86.222656 36.6875 -81.515625 C 36.375 -76.816406 36.21875 -71.539062 36.21875 -65.6875 C 36.21875 -64.632812 36.53125 -64.082031 37.15625 -64.03125 C 37.78125 -63.976562 39.296875 -63.847656 41.703125 -63.640625 C 44.941406 -63.328125 48.234375 -62.882812 51.578125 -62.3125 C 54.921875 -61.738281 58.210938 -61.453125 61.453125 -61.453125 C 62.179688 -61.453125 62.882812 -61.765625 63.5625 -62.390625 C 64.25 -63.015625 64.851562 -64.476562 65.375 -66.78125 C 64.957031 -70.332031 64.671875 -73.546875 64.515625 -76.421875 C 64.359375 -79.296875 64.28125 -82.195312 64.28125 -85.125 C 64.28125 -87.113281 64.304688 -89.148438 64.359375 -91.234375 C 64.410156 -93.328125 64.4375 -95.628906 64.4375 -98.140625 Z M 64.4375 -98.140625 "/></g></g></g><g fill="#ff3131" fill-opacity="1"><g transform="translate(101.597889, 157.10175)"><g><path d="M 40.125 -29.46875 C 38.664062 -29.675781 37.304688 -30.015625 36.046875 -30.484375 C 34.796875 -30.960938 33.703125 -31.566406 32.765625 -32.296875 C 32.554688 -29.265625 32.320312 -26.882812 32.0625 -25.15625 C 31.800781 -23.4375 31.59375 -21.6875 31.4375 -19.90625 C 31.28125 -18.132812 31.203125 -15.734375 31.203125 -12.703125 C 31.097656 -8.617188 29.921875 -5.554688 27.671875 -3.515625 C 25.421875 -1.484375 22.988281 -0.46875 20.375 -0.46875 C 17.863281 -0.46875 15.535156 -1.40625 13.390625 -3.28125 C 11.253906 -5.164062 9.925781 -8.046875 9.40625 -11.921875 C 9.40625 -24.984375 10.367188 -37.546875 12.296875 -49.609375 C 14.234375 -61.679688 16.300781 -72.785156 18.5 -82.921875 C 19.539062 -87.835938 20.816406 -92.359375 22.328125 -96.484375 C 23.847656 -100.617188 26.226562 -103.9375 29.46875 -106.4375 C 32.707031 -108.945312 37.410156 -110.203125 43.578125 -110.203125 C 44.835938 -110.203125 46.066406 -109.941406 47.265625 -109.421875 C 48.460938 -108.898438 49.742188 -108.117188 51.109375 -107.078125 C 55.804688 -102.367188 60.007812 -96.410156 63.71875 -89.203125 C 67.4375 -81.992188 70.675781 -74.257812 73.4375 -66 C 76.207031 -57.738281 78.5625 -49.582031 80.5 -41.53125 C 82.4375 -33.488281 83.976562 -26.28125 85.125 -19.90625 L 87 -15.515625 C 87.519531 -13.640625 87.78125 -12.070312 87.78125 -10.8125 C 87.78125 -7.570312 86.757812 -4.957031 84.71875 -2.96875 C 82.6875 -0.988281 80.3125 0 77.59375 0 C 74.351562 0 71.816406 -0.988281 69.984375 -2.96875 C 68.160156 -4.957031 66.78125 -7.414062 65.84375 -10.34375 C 64.90625 -13.269531 64.144531 -16.195312 63.5625 -19.125 C 62.988281 -22.050781 62.390625 -24.503906 61.765625 -26.484375 C 61.140625 -28.472656 60.144531 -29.46875 58.78125 -29.46875 C 58.675781 -29.46875 58.570312 -29.46875 58.46875 -29.46875 C 58.363281 -29.46875 58.257812 -29.46875 58.15625 -29.46875 Z M 42.484375 -84.03125 C 41.441406 -80.6875 40.132812 -77.050781 38.5625 -73.125 C 37 -69.207031 36.21875 -65.003906 36.21875 -60.515625 C 36.21875 -57.585938 36.503906 -55.3125 37.078125 -53.6875 C 37.648438 -52.070312 38.929688 -51.265625 40.921875 -51.265625 L 53.453125 -51.265625 C 54.609375 -51.265625 55.1875 -51.734375 55.1875 -52.671875 C 55.1875 -53.085938 55.132812 -53.476562 55.03125 -53.84375 C 54.925781 -54.207031 54.820312 -54.601562 54.71875 -55.03125 C 53.144531 -60.25 51.390625 -65.023438 49.453125 -69.359375 C 47.523438 -73.703125 45.203125 -78.59375 42.484375 -84.03125 Z M 42.484375 -84.03125 "/></g></g></g><g fill="#ff3131" fill-opacity="1"><g transform="translate(192.517716, 157.10175)"><g><path d="M 13.953125 -99.703125 C 14.785156 -103.148438 16.25 -105.757812 18.34375 -107.53125 C 20.4375 -109.3125 22.628906 -110.203125 24.921875 -110.203125 C 27.117188 -110.203125 29.234375 -109.414062 31.265625 -107.84375 C 33.304688 -106.28125 34.800781 -103.828125 35.75 -100.484375 C 35.75 -92.648438 35.75 -85.332031 35.75 -78.53125 C 35.75 -71.738281 35.71875 -65.050781 35.65625 -58.46875 C 35.601562 -51.882812 35.523438 -44.9375 35.421875 -37.625 C 35.421875 -36.582031 35.601562 -35.222656 35.96875 -33.546875 C 36.34375 -31.878906 37.285156 -30.414062 38.796875 -29.15625 C 40.316406 -27.90625 42.695312 -27.28125 45.9375 -27.28125 C 50.113281 -27.28125 54.289062 -27.253906 58.46875 -27.203125 C 62.65625 -27.148438 66.835938 -27.125 71.015625 -27.125 C 74.359375 -26.175781 76.8125 -24.679688 78.375 -22.640625 C 79.945312 -20.609375 80.734375 -18.492188 80.734375 -16.296875 C 80.734375 -14.003906 79.84375 -11.8125 78.0625 -9.71875 C 76.289062 -7.625 73.679688 -6.160156 70.234375 -5.328125 C 68.242188 -5.328125 66.253906 -5.300781 64.265625 -5.25 C 62.285156 -5.195312 60.300781 -5.171875 58.3125 -5.171875 C 51.414062 -5.171875 44.519531 -5.328125 37.625 -5.640625 C 33.34375 -5.847656 29.265625 -6.238281 25.390625 -6.8125 C 21.523438 -7.394531 18.414062 -8.648438 16.0625 -10.578125 C 13.71875 -12.515625 12.546875 -15.46875 12.546875 -19.4375 C 12.546875 -21.425781 12.859375 -23.566406 13.484375 -25.859375 C 13.484375 -34.953125 13.507812 -43.390625 13.5625 -51.171875 C 13.613281 -58.960938 13.691406 -66.722656 13.796875 -74.453125 C 13.898438 -82.191406 13.953125 -90.609375 13.953125 -99.703125 Z M 13.953125 -99.703125 "/></g></g></g><g fill="#ff3131" fill-opacity="1"><g transform="translate(270.113122, 157.10175)"><g><path d="M 38.09375 -104.875 C 44.050781 -104.875 49.613281 -103.488281 54.78125 -100.71875 C 59.957031 -97.945312 64.113281 -94.234375 67.25 -89.578125 C 70.382812 -84.929688 71.953125 -79.84375 71.953125 -74.3125 C 71.953125 -70.125 70.851562 -66.203125 68.65625 -62.546875 C 66.46875 -58.890625 63.675781 -55.753906 60.28125 -53.140625 C 56.882812 -50.523438 53.460938 -48.539062 50.015625 -47.1875 C 45.515625 -45.507812 42.347656 -43.414062 40.515625 -40.90625 C 38.691406 -38.40625 37.78125 -35.066406 37.78125 -30.890625 C 37.78125 -27.117188 37.882812 -23.222656 38.09375 -19.203125 C 38.300781 -15.179688 38.40625 -11.238281 38.40625 -7.375 C 38.40625 -5.070312 37.800781 -3.316406 36.59375 -2.109375 C 35.394531 -0.910156 33.910156 -0.3125 32.140625 -0.3125 C 30.046875 -0.3125 27.71875 -1.015625 25.15625 -2.421875 C 22.59375 -3.835938 20.394531 -5.773438 18.5625 -8.234375 C 16.738281 -10.691406 15.828125 -13.378906 15.828125 -16.296875 C 15.828125 -20.171875 15.957031 -24.015625 16.21875 -27.828125 C 16.476562 -31.640625 16.609375 -35.476562 16.609375 -39.34375 C 16.609375 -45.09375 15.929688 -51 14.578125 -57.0625 C 13.222656 -63.125 12.546875 -69.132812 12.546875 -75.09375 C 12.546875 -80.414062 13.5625 -85.347656 15.59375 -89.890625 C 17.632812 -94.441406 20.5625 -98.078125 24.375 -100.796875 C 28.1875 -103.515625 32.757812 -104.875 38.09375 -104.875 Z M 38.09375 -104.875 "/></g></g></g></g></g></g><g transform="matrix(1, 0, 0, 1, 77, 195)"><g clip-path="url(#aa9568dedb)"><g fill="#24282b" fill-opacity="1"><g transform="translate(1.183247, 15.539448)"><g><path d="M 0.65625 -9.953125 L 0.65625 -10.375 L 4.875 -10.375 C 5.6875 -10.375 6.332031 -10.257812 6.8125 -10.03125 C 7.289062 -9.8125 7.632812 -9.519531 7.84375 -9.15625 C 8.050781 -8.789062 8.15625 -8.382812 8.15625 -7.9375 L 8.15625 -7.53125 C 8.15625 -7 7.988281 -6.539062 7.65625 -6.15625 C 7.320312 -5.78125 6.84375 -5.507812 6.21875 -5.34375 C 6.988281 -5.207031 7.578125 -4.929688 7.984375 -4.515625 C 8.398438 -4.097656 8.609375 -3.578125 8.609375 -2.953125 L 8.609375 -2.515625 C 8.609375 -2.054688 8.5 -1.632812 8.28125 -1.25 C 8.070312 -0.875 7.71875 -0.570312 7.21875 -0.34375 C 6.726562 -0.113281 6.070312 0 5.25 0 L 0.65625 0 L 0.65625 -0.421875 L 1.5 -0.53125 C 1.65625 -0.550781 1.75 -0.59375 1.78125 -0.65625 C 1.8125 -0.726562 1.828125 -0.9375 1.828125 -1.28125 L 1.828125 -9.09375 C 1.828125 -9.445312 1.8125 -9.65625 1.78125 -9.71875 C 1.75 -9.78125 1.65625 -9.820312 1.5 -9.84375 Z M 4.875 -9.84375 L 3.65625 -9.84375 L 3.65625 -5.578125 L 4.875 -5.578125 C 5.3125 -5.578125 5.640625 -5.722656 5.859375 -6.015625 C 6.085938 -6.316406 6.203125 -6.796875 6.203125 -7.453125 L 6.203125 -7.9375 C 6.203125 -8.601562 6.085938 -9.085938 5.859375 -9.390625 C 5.640625 -9.691406 5.3125 -9.84375 4.875 -9.84375 Z M 5.25 -5.03125 L 3.65625 -5.03125 L 3.65625 -0.53125 L 5.25 -0.53125 C 5.707031 -0.53125 6.054688 -0.6875 6.296875 -1 C 6.535156 -1.3125 6.65625 -1.816406 6.65625 -2.515625 L 6.65625 -3.015625 C 6.65625 -4.359375 6.1875 -5.03125 5.25 -5.03125 Z M 5.25 -5.03125 "/></g></g></g><g fill="#24282b" fill-opacity="1"><g transform="translate(14.857826, 15.539448)"><g><path d="M 2.859375 -0.421875 L 2.859375 0 L -0.09375 0 L -0.09375 -0.421875 L 0.75 -0.53125 C 0.863281 -0.550781 0.941406 -0.570312 0.984375 -0.59375 C 1.035156 -0.625 1.082031 -0.691406 1.125 -0.796875 C 1.164062 -0.898438 1.222656 -1.0625 1.296875 -1.28125 L 4.21875 -10.375 L 5.53125 -10.375 L 8.453125 -1.28125 C 8.523438 -1.0625 8.582031 -0.898438 8.625 -0.796875 C 8.664062 -0.691406 8.710938 -0.625 8.765625 -0.59375 C 8.828125 -0.570312 8.90625 -0.550781 9 -0.53125 L 9.84375 -0.421875 L 9.84375 0 L 5.640625 0 L 5.640625 -0.421875 L 6.46875 -0.53125 C 6.632812 -0.550781 6.722656 -0.59375 6.734375 -0.65625 C 6.753906 -0.726562 6.707031 -0.9375 6.59375 -1.28125 L 6.015625 -3.171875 L 2.484375 -3.171875 L 1.890625 -1.28125 C 1.785156 -0.9375 1.738281 -0.726562 1.75 -0.65625 C 1.757812 -0.59375 1.847656 -0.550781 2.015625 -0.53125 Z M 2.671875 -3.703125 L 5.84375 -3.703125 L 4.28125 -8.78125 Z M 2.671875 -3.703125 "/></g></g></g><g fill="#24282b" fill-opacity="1"><g transform="translate(28.883309, 15.539448)"><g><path d="M 4.203125 -0.375 C 4.804688 -0.375 5.304688 -0.519531 5.703125 -0.8125 C 6.109375 -1.101562 6.3125 -1.5625 6.3125 -2.1875 C 6.3125 -2.644531 6.175781 -3.023438 5.90625 -3.328125 C 5.644531 -3.628906 5.164062 -3.882812 4.46875 -4.09375 L 3.046875 -4.515625 C 2.335938 -4.734375 1.789062 -5.101562 1.40625 -5.625 C 1.03125 -6.144531 0.84375 -6.800781 0.84375 -7.59375 C 0.84375 -8.101562 0.960938 -8.582031 1.203125 -9.03125 C 1.441406 -9.476562 1.804688 -9.835938 2.296875 -10.109375 C 2.785156 -10.390625 3.410156 -10.53125 4.171875 -10.53125 C 4.992188 -10.53125 5.660156 -10.378906 6.171875 -10.078125 C 6.679688 -9.773438 7.035156 -9.382812 7.234375 -8.90625 C 7.441406 -8.4375 7.492188 -7.925781 7.390625 -7.375 L 5.640625 -7.046875 C 5.796875 -7.992188 5.722656 -8.722656 5.421875 -9.234375 C 5.128906 -9.742188 4.644531 -10 3.96875 -10 C 3.445312 -10 3.03125 -9.84375 2.71875 -9.53125 C 2.414062 -9.226562 2.265625 -8.796875 2.265625 -8.234375 C 2.265625 -7.765625 2.394531 -7.347656 2.65625 -6.984375 C 2.925781 -6.628906 3.375 -6.359375 4 -6.171875 L 5.421875 -5.734375 C 6.191406 -5.515625 6.769531 -5.175781 7.15625 -4.71875 C 7.539062 -4.269531 7.734375 -3.644531 7.734375 -2.84375 C 7.734375 -2.269531 7.601562 -1.753906 7.34375 -1.296875 C 7.09375 -0.847656 6.703125 -0.492188 6.171875 -0.234375 C 5.648438 0.0234375 5 0.15625 4.21875 0.15625 C 3.644531 0.15625 3.101562 0.0703125 2.59375 -0.09375 C 2.082031 -0.257812 1.65625 -0.535156 1.3125 -0.921875 C 0.976562 -1.316406 0.765625 -1.84375 0.671875 -2.5 L 1.6875 -2.875 C 1.738281 -2.21875 1.882812 -1.707031 2.125 -1.34375 C 2.363281 -0.988281 2.664062 -0.738281 3.03125 -0.59375 C 3.394531 -0.445312 3.785156 -0.375 4.203125 -0.375 Z M 4.203125 -0.375 "/></g></g></g><g fill="#24282b" fill-opacity="1"><g transform="translate(41.733995, 15.539448)"><g><path d="M 7.78125 -2.625 L 8.21875 -2.625 L 8.21875 0 L 0.65625 0 L 0.65625 -0.421875 L 1.5 -0.53125 C 1.65625 -0.550781 1.75 -0.59375 1.78125 -0.65625 C 1.8125 -0.726562 1.828125 -0.9375 1.828125 -1.28125 L 1.828125 -9.09375 C 1.828125 -9.445312 1.8125 -9.65625 1.78125 -9.71875 C 1.75 -9.78125 1.65625 -9.820312 1.5 -9.84375 L 0.65625 -9.953125 L 0.65625 -10.375 L 8.0625 -10.375 L 8.0625 -7.75 L 7.640625 -7.75 L 7.140625 -9.453125 C 7.109375 -9.566406 7.070312 -9.648438 7.03125 -9.703125 C 7 -9.765625 6.929688 -9.800781 6.828125 -9.8125 C 6.734375 -9.832031 6.5625 -9.84375 6.3125 -9.84375 L 3.65625 -9.84375 L 3.65625 -5.515625 L 5.40625 -5.515625 C 5.644531 -5.515625 5.816406 -5.519531 5.921875 -5.53125 C 6.023438 -5.550781 6.09375 -5.585938 6.125 -5.640625 C 6.164062 -5.691406 6.203125 -5.78125 6.234375 -5.90625 L 6.5625 -7.140625 L 6.984375 -7.140625 L 6.984375 -3.34375 L 6.5625 -3.34375 L 6.234375 -4.578125 C 6.203125 -4.703125 6.164062 -4.789062 6.125 -4.84375 C 6.09375 -4.90625 6.023438 -4.941406 5.921875 -4.953125 C 5.816406 -4.972656 5.644531 -4.984375 5.40625 -4.984375 L 3.65625 -4.984375 L 3.65625 -0.53125 L 6.46875 -0.53125 C 6.71875 -0.53125 6.890625 -0.535156 6.984375 -0.546875 C 7.085938 -0.566406 7.15625 -0.601562 7.1875 -0.65625 C 7.226562 -0.71875 7.265625 -0.8125 7.296875 -0.9375 Z M 7.78125 -2.625 "/></g></g></g><g fill="#24282b" fill-opacity="1"><g transform="translate(55.210229, 15.539448)"><g/></g></g><g fill="#24282b" fill-opacity="1"><g transform="translate(62.904034, 15.539448)"><g><path d="M 0.65625 -9.953125 L 0.65625 -10.375 L 4.84375 -10.375 L 4.84375 -9.953125 L 4 -9.84375 C 3.832031 -9.820312 3.734375 -9.78125 3.703125 -9.71875 C 3.671875 -9.65625 3.65625 -9.445312 3.65625 -9.09375 L 3.65625 -1.28125 C 3.65625 -0.9375 3.671875 -0.726562 3.703125 -0.65625 C 3.734375 -0.59375 3.832031 -0.550781 4 -0.53125 L 4.84375 -0.421875 L 4.84375 0 L 0.65625 0 L 0.65625 -0.421875 L 1.5 -0.53125 C 1.65625 -0.550781 1.75 -0.59375 1.78125 -0.65625 C 1.8125 -0.726562 1.828125 -0.9375 1.828125 -1.28125 L 1.828125 -9.09375 C 1.828125 -9.445312 1.8125 -9.65625 1.78125 -9.71875 C 1.75 -9.78125 1.65625 -9.820312 1.5 -9.84375 Z M 0.65625 -9.953125 "/></g></g></g><g fill="#24282b" fill-opacity="1"><g transform="translate(72.672807, 15.539448)"><g><path d="M 7.09375 -9.953125 L 7.09375 -10.375 L 10.0625 -10.375 L 10.0625 -9.953125 L 9.21875 -9.84375 C 9.050781 -9.820312 8.953125 -9.78125 8.921875 -9.71875 C 8.898438 -9.65625 8.890625 -9.445312 8.890625 -9.09375 L 8.890625 0 L 8.046875 0 L 2.4375 -9.046875 L 2.4375 -1.28125 C 2.4375 -0.9375 2.453125 -0.726562 2.484375 -0.65625 C 2.515625 -0.59375 2.613281 -0.550781 2.78125 -0.53125 L 3.625 -0.421875 L 3.625 0 L 0.65625 0 L 0.65625 -0.421875 L 1.5 -0.53125 C 1.65625 -0.550781 1.75 -0.59375 1.78125 -0.65625 C 1.8125 -0.726562 1.828125 -0.9375 1.828125 -1.28125 L 1.828125 -9.09375 C 1.828125 -9.445312 1.8125 -9.65625 1.78125 -9.71875 C 1.75 -9.78125 1.65625 -9.820312 1.5 -9.84375 L 0.65625 -9.953125 L 0.65625 -10.375 L 3.71875 -10.375 L 8.28125 -3.0625 L 8.28125 -9.09375 C 8.28125 -9.445312 8.265625 -9.65625 8.234375 -9.71875 C 8.203125 -9.78125 8.101562 -9.820312 7.9375 -9.84375 Z M 7.09375 -9.953125 "/></g></g></g><g fill="#24282b" fill-opacity="1"><g transform="translate(87.430629, 15.539448)"><g/></g></g><g fill="#24282b" fill-opacity="1"><g transform="translate(95.124433, 15.539448)"><g><path d="M 5.375 0.15625 C 4.4375 0.15625 3.640625 -0.0390625 2.984375 -0.4375 C 2.335938 -0.84375 1.84375 -1.410156 1.5 -2.140625 C 1.164062 -2.878906 1 -3.738281 1 -4.71875 L 1 -5.671875 C 1 -6.648438 1.148438 -7.503906 1.453125 -8.234375 C 1.753906 -8.960938 2.203125 -9.523438 2.796875 -9.921875 C 3.398438 -10.328125 4.15625 -10.53125 5.0625 -10.53125 C 5.84375 -10.53125 6.488281 -10.378906 7 -10.078125 C 7.519531 -9.773438 7.90625 -9.378906 8.15625 -8.890625 C 8.40625 -8.398438 8.507812 -7.863281 8.46875 -7.28125 L 6.6875 -6.84375 C 6.789062 -7.851562 6.6875 -8.628906 6.375 -9.171875 C 6.0625 -9.722656 5.597656 -10 4.984375 -10 C 4.335938 -10 3.835938 -9.722656 3.484375 -9.171875 C 3.140625 -8.617188 2.96875 -7.707031 2.96875 -6.4375 L 2.96875 -3.953125 C 2.96875 -2.691406 3.164062 -1.78125 3.5625 -1.21875 C 3.957031 -0.65625 4.5625 -0.375 5.375 -0.375 C 5.707031 -0.375 6.019531 -0.4375 6.3125 -0.5625 C 6.601562 -0.6875 6.847656 -0.898438 7.046875 -1.203125 C 7.242188 -1.503906 7.367188 -1.925781 7.421875 -2.46875 L 8.515625 -2.1875 C 8.367188 -1.613281 8.140625 -1.15625 7.828125 -0.8125 C 7.515625 -0.46875 7.144531 -0.21875 6.71875 -0.0625 C 6.300781 0.0820312 5.851562 0.15625 5.375 0.15625 Z M 5.375 0.15625 "/></g></g></g><g fill="#24282b" fill-opacity="1"><g transform="translate(108.509113, 15.539448)"><g><path d="M 2.859375 -0.421875 L 2.859375 0 L -0.09375 0 L -0.09375 -0.421875 L 0.75 -0.53125 C 0.863281 -0.550781 0.941406 -0.570312 0.984375 -0.59375 C 1.035156 -0.625 1.082031 -0.691406 1.125 -0.796875 C 1.164062 -0.898438 1.222656 -1.0625 1.296875 -1.28125 L 4.21875 -10.375 L 5.53125 -10.375 L 8.453125 -1.28125 C 8.523438 -1.0625 8.582031 -0.898438 8.625 -0.796875 C 8.664062 -0.691406 8.710938 -0.625 8.765625 -0.59375 C 8.828125 -0.570312 8.90625 -0.550781 9 -0.53125 L 9.84375 -0.421875 L 9.84375 0 L 5.640625 0 L 5.640625 -0.421875 L 6.46875 -0.53125 C 6.632812 -0.550781 6.722656 -0.59375 6.734375 -0.65625 C 6.753906 -0.726562 6.707031 -0.9375 6.59375 -1.28125 L 6.015625 -3.171875 L 2.484375 -3.171875 L 1.890625 -1.28125 C 1.785156 -0.9375 1.738281 -0.726562 1.75 -0.65625 C 1.757812 -0.59375 1.847656 -0.550781 2.015625 -0.53125 Z M 2.671875 -3.703125 L 5.84375 -3.703125 L 4.28125 -8.78125 Z M 2.671875 -3.703125 "/></g></g></g><g fill="#24282b" fill-opacity="1"><g transform="translate(122.534596, 15.539448)"><g><path d="M 0.65625 -9.953125 L 0.65625 -10.375 L 5.265625 -10.375 C 6.335938 -10.375 7.160156 -10.132812 7.734375 -9.65625 C 8.316406 -9.1875 8.609375 -8.546875 8.609375 -7.734375 L 8.609375 -7.390625 C 8.609375 -6.773438 8.441406 -6.253906 8.109375 -5.828125 C 7.773438 -5.398438 7.289062 -5.097656 6.65625 -4.921875 L 8.5625 -1.28125 C 8.6875 -1.0625 8.78125 -0.898438 8.84375 -0.796875 C 8.90625 -0.691406 8.960938 -0.625 9.015625 -0.59375 C 9.066406 -0.570312 9.144531 -0.550781 9.25 -0.53125 L 9.9375 -0.421875 L 9.9375 0 L 7.078125 0 L 4.78125 -4.734375 L 3.65625 -4.734375 L 3.65625 -1.28125 C 3.65625 -0.9375 3.671875 -0.726562 3.703125 -0.65625 C 3.734375 -0.59375 3.832031 -0.550781 4 -0.53125 L 4.84375 -0.421875 L 4.84375 0 L 0.65625 0 L 0.65625 -0.421875 L 1.5 -0.53125 C 1.65625 -0.550781 1.75 -0.59375 1.78125 -0.65625 C 1.8125 -0.726562 1.828125 -0.9375 1.828125 -1.28125 L 1.828125 -9.09375 C 1.828125 -9.445312 1.8125 -9.65625 1.78125 -9.71875 C 1.75 -9.78125 1.65625 -9.820312 1.5 -9.84375 Z M 5.265625 -9.84375 L 3.65625 -9.84375 L 3.65625 -5.265625 L 5.265625 -5.265625 C 5.710938 -5.265625 6.054688 -5.40625 6.296875 -5.6875 C 6.535156 -5.96875 6.65625 -6.484375 6.65625 -7.234375 L 6.65625 -7.890625 C 6.65625 -8.640625 6.535156 -9.148438 6.296875 -9.421875 C 6.054688 -9.703125 5.710938 -9.84375 5.265625 -9.84375 Z M 5.265625 -9.84375 "/></g></g></g><g fill="#24282b" fill-opacity="1"><g transform="translate(136.743168, 15.539448)"><g><path d="M 0.65625 -9.953125 L 0.65625 -10.375 L 5.15625 -10.375 C 6.457031 -10.375 7.457031 -9.992188 8.15625 -9.234375 C 8.851562 -8.472656 9.203125 -7.285156 9.203125 -5.671875 L 9.203125 -4.71875 C 9.203125 -3.113281 8.851562 -1.925781 8.15625 -1.15625 C 7.457031 -0.382812 6.457031 0 5.15625 0 L 0.65625 0 L 0.65625 -0.421875 L 1.5 -0.53125 C 1.65625 -0.550781 1.75 -0.59375 1.78125 -0.65625 C 1.8125 -0.726562 1.828125 -0.9375 1.828125 -1.28125 L 1.828125 -9.09375 C 1.828125 -9.445312 1.8125 -9.65625 1.78125 -9.71875 C 1.75 -9.78125 1.65625 -9.820312 1.5 -9.84375 Z M 5.078125 -9.84375 L 3.65625 -9.84375 L 3.65625 -0.53125 L 5.078125 -0.53125 C 5.597656 -0.53125 6.015625 -0.617188 6.328125 -0.796875 C 6.648438 -0.972656 6.882812 -1.304688 7.03125 -1.796875 C 7.175781 -2.296875 7.25 -3.015625 7.25 -3.953125 L 7.25 -6.4375 C 7.25 -7.375 7.175781 -8.085938 7.03125 -8.578125 C 6.882812 -9.066406 6.648438 -9.398438 6.328125 -9.578125 C 6.015625 -9.753906 5.597656 -9.84375 5.078125 -9.84375 Z M 5.078125 -9.84375 "/></g></g></g><g fill="#24282b" fill-opacity="1"><g transform="translate(151.226365, 15.539448)"><g><path d="M 0.65625 -9.953125 L 0.65625 -10.375 L 4.84375 -10.375 L 4.84375 -9.953125 L 4 -9.84375 C 3.832031 -9.820312 3.734375 -9.78125 3.703125 -9.71875 C 3.671875 -9.65625 3.65625 -9.445312 3.65625 -9.09375 L 3.65625 -1.28125 C 3.65625 -0.9375 3.671875 -0.726562 3.703125 -0.65625 C 3.734375 -0.59375 3.832031 -0.550781 4 -0.53125 L 4.84375 -0.421875 L 4.84375 0 L 0.65625 0 L 0.65625 -0.421875 L 1.5 -0.53125 C 1.65625 -0.550781 1.75 -0.59375 1.78125 -0.65625 C 1.8125 -0.726562 1.828125 -0.9375 1.828125 -1.28125 L 1.828125 -9.09375 C 1.828125 -9.445312 1.8125 -9.65625 1.78125 -9.71875 C 1.75 -9.78125 1.65625 -9.820312 1.5 -9.84375 Z M 0.65625 -9.953125 "/></g></g></g><g fill="#24282b" fill-opacity="1"><g transform="translate(160.995139, 15.539448)"><g><path d="M 6.390625 -7.046875 L 6.828125 -7.046875 L 6.828125 -3.25 L 6.390625 -3.25 L 6.0625 -4.484375 C 6.03125 -4.609375 5.992188 -4.695312 5.953125 -4.75 C 5.921875 -4.8125 5.851562 -4.847656 5.75 -4.859375 C 5.65625 -4.878906 5.484375 -4.890625 5.234375 -4.890625 L 3.65625 -4.890625 L 3.65625 -1.28125 C 3.65625 -0.9375 3.671875 -0.726562 3.703125 -0.65625 C 3.734375 -0.59375 3.832031 -0.550781 4 -0.53125 L 5.140625 -0.421875 L 5.140625 0 L 0.65625 0 L 0.65625 -0.421875 L 1.5 -0.53125 C 1.65625 -0.550781 1.75 -0.59375 1.78125 -0.65625 C 1.8125 -0.726562 1.828125 -0.9375 1.828125 -1.28125 L 1.828125 -9.09375 C 1.828125 -9.445312 1.8125 -9.65625 1.78125 -9.71875 C 1.75 -9.78125 1.65625 -9.820312 1.5 -9.84375 L 0.65625 -9.953125 L 0.65625 -10.375 L 7.890625 -10.375 L 7.890625 -7.75 L 7.46875 -7.75 L 6.96875 -9.453125 C 6.945312 -9.566406 6.914062 -9.648438 6.875 -9.703125 C 6.84375 -9.765625 6.773438 -9.800781 6.671875 -9.8125 C 6.566406 -9.832031 6.394531 -9.84375 6.15625 -9.84375 L 3.65625 -9.84375 L 3.65625 -5.421875 L 5.234375 -5.421875 C 5.484375 -5.421875 5.65625 -5.425781 5.75 -5.4375 C 5.851562 -5.457031 5.921875 -5.492188 5.953125 -5.546875 C 5.992188 -5.609375 6.03125 -5.695312 6.0625 -5.8125 Z M 6.390625 -7.046875 "/></g></g></g><g fill="#24282b" fill-opacity="1"><g transform="translate(173.723778, 15.539448)"><g><path d="M 6.390625 -7.046875 L 6.828125 -7.046875 L 6.828125 -3.25 L 6.390625 -3.25 L 6.0625 -4.484375 C 6.03125 -4.609375 5.992188 -4.695312 5.953125 -4.75 C 5.921875 -4.8125 5.851562 -4.847656 5.75 -4.859375 C 5.65625 -4.878906 5.484375 -4.890625 5.234375 -4.890625 L 3.65625 -4.890625 L 3.65625 -1.28125 C 3.65625 -0.9375 3.671875 -0.726562 3.703125 -0.65625 C 3.734375 -0.59375 3.832031 -0.550781 4 -0.53125 L 5.140625 -0.421875 L 5.140625 0 L 0.65625 0 L 0.65625 -0.421875 L 1.5 -0.53125 C 1.65625 -0.550781 1.75 -0.59375 1.78125 -0.65625 C 1.8125 -0.726562 1.828125 -0.9375 1.828125 -1.28125 L 1.828125 -9.09375 C 1.828125 -9.445312 1.8125 -9.65625 1.78125 -9.71875 C 1.75 -9.78125 1.65625 -9.820312 1.5 -9.84375 L 0.65625 -9.953125 L 0.65625 -10.375 L 7.890625 -10.375 L 7.890625 -7.75 L 7.46875 -7.75 L 6.96875 -9.453125 C 6.945312 -9.566406 6.914062 -9.648438 6.875 -9.703125 C 6.84375 -9.765625 6.773438 -9.800781 6.671875 -9.8125 C 6.566406 -9.832031 6.394531 -9.84375 6.15625 -9.84375 L 3.65625 -9.84375 L 3.65625 -5.421875 L 5.234375 -5.421875 C 5.484375 -5.421875 5.65625 -5.425781 5.75 -5.4375 C 5.851562 -5.457031 5.921875 -5.492188 5.953125 -5.546875 C 5.992188 -5.609375 6.03125 -5.695312 6.0625 -5.8125 Z M 6.390625 -7.046875 "/></g></g></g><g fill="#24282b" fill-opacity="1"><g transform="translate(186.452417, 15.539448)"><g><path d="M 1.9375 0.15625 C 1.625 0.15625 1.367188 0.0546875 1.171875 -0.140625 C 0.972656 -0.335938 0.875 -0.601562 0.875 -0.9375 C 0.875 -1.257812 0.972656 -1.515625 1.171875 -1.703125 C 1.367188 -1.898438 1.625 -2 1.9375 -2 C 2.25 -2 2.503906 -1.898438 2.703125 -1.703125 C 2.910156 -1.515625 3.015625 -1.257812 3.015625 -0.9375 C 3.015625 -0.601562 2.910156 -0.335938 2.703125 -0.140625 C 2.503906 0.0546875 2.25 0.15625 1.9375 0.15625 Z M 1.9375 0.15625 "/></g></g></g></g></g><path stroke-linecap="round" transform="matrix(0.891462, 0, 0, 0.891462, 137.296278, 7.084341)" fill="none" stroke-linejoin="miter" d="M 10.9991 11.000221 L 68.580923 11.000221 " stroke="#ff3131" stroke-width="22" stroke-opacity="1" stroke-miterlimit="4"/><g clip-path="url(#7bacdfd2ff)"><path stroke-linecap="round" transform="matrix(0.891462, 0, 0, 0.891462, 75.009185, 223.476554)" fill="none" stroke-linejoin="miter" d="M 0.49799 0.49954 L 461.450539 0.49954 " stroke="#ff3131" stroke-width="1" stroke-opacity="1" stroke-miterlimit="4"/></g></g></g></svg>